# xmcd CD database file
#
# Track frame offsets:
#	150
#	20668
#	41578
#
# Disc length: 823 seconds
#
# Revision: 3
# Processed by: cddbd v1.5PL3 Copyright (c) Steve Scherf et al.
# Submitted via: CDex 1.51
#
DISCID=1e033503
DTITLE=ポルノグラフィティ - メリッサ
DYEAR=2003
DGENRE=JPop
TTITLE0=メリッサ
TTITLE1=見えない世界
TTITLE2=月飼い
EXTD=YEAR: 2003
EXTT0=
EXTT1=
EXTT2=
PLAYORDER=
